<svg width="360" height="560" viewBox="0 0 360 560" fill="none" xmlns="http://www.w3.org/2000/svg">
<mask id="mask0" mask-type="alpha" maskUnits="userSpaceOnUse" x="0" y="0" width="360" height="608">
<rect width="360" height="607.5" rx="4" fill="#F9FAFB"/>
</mask>
<g mask="url(#mask0)">
<rect x="8.03491" y="193.103" width="234" height="13.5" transform="rotate(-45 8.03491 193.103)" fill="url(#paint0_linear)"/>
<rect x="116.222" y="174.011" width="234" height="13.5" transform="rotate(-45 116.222 174.011)" fill="url(#paint1_linear)"/>
<rect x="113.04" y="266.288" width="234" height="13.5" transform="rotate(-45 113.04 266.288)" fill="url(#paint2_linear)"/>
<rect x="173.498" y="294.926" width="234" height="13.5" transform="rotate(-45 173.498 294.926)" fill="url(#paint3_linear)"/>
<rect x="170.316" y="387.203" width="234" height="13.5" transform="rotate(-45 170.316 387.203)" fill="url(#paint4_linear)"/>
</g>
<defs>
<linearGradient id="paint0_linear" x1="8.15931" y1="193.103" x2="244.297" y2="193.103" gradientUnits="userSpaceOnUse">
<stop stop-color="#E7EBEF" stop-opacity="0"/>
<stop offset="1" stop-color="#F9FAFB"/>
</linearGradient>
<linearGradient id="paint1_linear" x1="116.347" y1="174.011" x2="352.484" y2="174.011" gradientUnits="userSpaceOnUse">
<stop stop-color="#E7EBEF" stop-opacity="0"/>
<stop offset="1" stop-color="#F9FAFB"/>
</linearGradient>
<linearGradient id="paint2_linear" x1="113.165" y1="266.288" x2="349.302" y2="266.288" gradientUnits="userSpaceOnUse">
<stop stop-color="#E7EBEF" stop-opacity="0"/>
<stop offset="1" stop-color="#F9FAFB"/>
</linearGradient>
<linearGradient id="paint3_linear" x1="173.622" y1="294.926" x2="409.76" y2="294.926" gradientUnits="userSpaceOnUse">
<stop stop-color="#E7EBEF" stop-opacity="0"/>
<stop offset="1" stop-color="#F9FAFB"/>
</linearGradient>
<linearGradient id="paint4_linear" x1="170.44" y1="387.203" x2="406.578" y2="387.203" gradientUnits="userSpaceOnUse">
<stop stop-color="#E7EBEF" stop-opacity="0"/>
<stop offset="1" stop-color="#F9FAFB"/>
</linearGradient>
</defs>
</svg>
