<svg width="160" height="80" viewBox="0 0 160 80" fill="none" xmlns="http://www.w3.org/2000/svg">
<path d="M128.79 46.094H141.382L96.2748 0L79.3561 17.2887L62.4374 0L17.3333 46.094H29.9222L62.4374 12.8663L73.06 23.7218L51.1708 46.094H63.7596L79.3561 30.155L94.9526 46.094H107.545L85.6522 23.7218L96.2748 12.8663L128.79 46.094Z" fill="#E71F18"/>
<path d="M36.667 66.6609H33.9745V79.7876H36.667V66.6609Z" fill="black"/>
<path d="M99.4741 66.6609H96.7816V79.7876H99.4741V66.6609Z" fill="black"/>
<path d="M47.2176 75.742V66.6609H44.5251V75.742C44.5251 77.9755 46.3407 79.791 48.5741 79.791H64.2562V77.0986H48.5741C47.8274 77.0951 47.2176 76.4888 47.2176 75.742Z" fill="black"/>
<path d="M71.8781 75.742V66.6609H69.1856V75.742C69.1856 77.9755 71.0011 79.791 73.2346 79.791H88.9167V77.0986H73.2346C72.4844 77.0951 71.8781 76.4888 71.8781 75.742Z" fill="black"/>
<path d="M107.343 70.6962V79.7876H110.035V70.6962C110.035 69.9563 110.638 69.3534 111.378 69.3534H130.468V66.6609H111.378C109.155 66.6609 107.343 68.4696 107.343 70.6962Z" fill="black"/>
<path d="M129.718 72.8201H113.396V75.5126H129.718V72.8201Z" fill="black"/>
<path d="M13.0547 71.8849C8.99204 71.8849 5.27875 69.946 2.95966 66.6575H0V79.7842H2.69247V70.4564C5.45003 73.0838 9.11878 74.5774 13.0513 74.5774C16.9872 74.5774 20.656 73.0838 23.4101 70.4564V79.7842H26.1026V66.6575H23.1464C20.8307 69.946 17.114 71.8849 13.0547 71.8849Z" fill="black"/>
<path d="M137.001 68.7369L145.544 73.2414L137.001 77.746L138.303 80L148.329 74.711L158.359 80L159.661 77.746L138.303 66.4828L137.001 68.7369Z" fill="black"/>
<path d="M159.661 68.7369L158.359 66.4828L150.347 70.7065L153.132 72.1795L159.661 68.7369Z" fill="black"/>
</svg>
