<svg version="1" xmlns="http://www.w3.org/2000/svg" width="2666.667" height="2666.667" viewBox="0 0 2000.000000 2000.000000"><path d="M1257.8 644.3c-8.1 8.4-23.5 24.2-34.3 35.2-10.8 11-31.1 31.9-45.3 46.3-14.1 14.5-32 32.8-39.7 40.7-7.7 7.9-26.4 27-41.5 42.5-15.1 15.5-35.3 36.2-44.8 45.9-9.5 9.7-23.8 24.2-31.6 32.3-7.9 8.2-14.8 14.8-15.2 14.8-.5 0-17.4-16.7-37.4-37.1-20.1-20.4-48.1-48.8-62.3-63.2-14.2-14.4-37.9-38.5-52.5-53.6-31.7-32.4-30.3-31.1-31.6-31.1-.5 0-.7-.2-.5-.5.3-.2-9.3-10.5-21.3-22.7-12.1-12.3-31.1-31.6-42.2-43.1-11.2-11.4-20.6-20.7-21.1-20.7-.4 0-6.3 5.7-13.1 12.7-6.9 7.1-25.3 25.8-40.9 41.8-15.6 15.9-34.6 35.4-42.2 43.1-7.6 7.8-27.8 28.5-45 46-17.1 17.6-38 39-46.5 47.6-17.3 17.8-73.9 75.6-89.8 91.8-16.6 17-67.9 69.4-86.3 88.3-9.3 9.4-29.6 30.2-45.2 46.2-15.6 15.9-33.6 34.4-40 41-6.4 6.6-24.1 24.8-39.3 40.4-36.8 37.8-40 41-66.7 68.6-12.6 13.1-26.8 27.7-31.5 32.5-4.7 4.9-17.5 18.1-28.5 29.6-11 11.4-23.4 24.2-27.5 28.4-15.4 15.9-35.5 37.2-35.8 38.1-.2.5-.8.7-1.3.3-.5-.3-.9-.1-.9.4s-3 4.2-6.7 8.1c-10.1 10.5-22.8 24.3-25.2 27-3.4 4-3 4.6 4.1 5.5 19.4 2.5 32.9 2.8 116.5 3.1l77.2.2 12.8-13.2c7-7.2 14.9-15.5 17.6-18.3 2.6-2.8 4.7-4.9 4.7-4.7 0 .2 2.8-2.6 6.3-6.2 3.4-3.6 10.7-11.2 16.2-16.8 5.5-5.6 21.5-22.1 35.7-36.6 14.1-14.5 31.1-32 37.8-38.9 6.7-6.9 22.8-23.5 35.8-36.9 13.1-13.3 29.1-29.8 35.7-36.6 6.6-6.7 24.2-24.7 39-40 14.9-15.2 33.1-33.9 40.5-41.5 50.1-51.2 75.8-77.6 89.5-91.5 8.6-8.8 26.5-27.1 39.8-40.8 13.3-13.6 32.2-33 42-43 9.8-10 27.4-28 39-39.9l21.2-21.7 82.7 83 82.7 83.1-20.4 20.6c-11.2 11.4-25.6 26.1-32 32.7-10.4 10.7-25.8 26.4-90.5 92.5-9.6 9.8-30.8 31.4-47 48.1-16.2 16.6-35.2 36.1-42.2 43.3-7.1 7.1-12.8 13.4-12.8 13.8 0 .4-.7.8-1.5.8s-1.5.4-1.5.9c0 .4-3.9 4.9-8.7 9.8-7.4 7.6-31 32-53.3 55.3-7.3 7.6-25.7 27.2-31.4 33.5-2.6 2.8-4.2 5.3-3.7 5.8 2.2 2.2 27.6 2.9 118.4 3.2l81.9.2 19.1-19.3c10.6-10.7 39.2-39.7 63.7-64.5 47.9-48.6 111.2-112.4 145.3-146.7l21.1-21.2 22.6 22.9c52.2 53.2 92.6 94.3 118 120.1 14.9 15.1 39.8 40.5 55.3 56.3 15.5 15.9 33.5 34.1 40 40.6l11.7 11.8 82.8-.2c45.5-.2 88.1-.6 94.7-.9 13.3-.6 24.8-1.5 25.3-2 .3-.3-3.9-5.1-13.3-15.1-10.1-10.7-32.5-34.2-42-44-5.5-5.7-18.1-18.7-28-29-9.9-10.3-23.6-24.4-30.5-31.5-6.9-7-24.5-25.1-39.1-40.1-14.7-15.1-31.9-32.8-38.4-39.4-6.4-6.6-22.3-23-35.3-36.4-13-13.4-29-29.8-35.6-36.5-6.5-6.6-20-20.5-30-30.9-55.8-57.7-51-52.4-49.3-54.7 2.4-3.4 24-26.8 39.8-43.2 4.1-4.3 7.4-7.8 7.3-7.8-.2 0 2.3-2.6 5.4-5.9 3.1-3.2 15.4-15.9 27.2-28.1 24.7-25.5 33.8-34.8 60.5-62.1l19.2-19.7 23.4 24c28.3 29 49.2 50.4 81 82.8 13.1 13.5 31.6 32.4 41 42 9.4 9.6 31.6 32.3 49.2 50.4 44.3 45.2 53.3 54.4 83.7 85.6 26.8 27.4 36.9 37.8 74 76 11.3 11.6 26.6 27.3 34 34.9 7.4 7.6 23.6 24.3 36 37 12.4 12.7 29 29.8 37 38s23.7 24.3 34.9 35.8l20.3 21 76.2-.2c67.2-.2 91.4-.7 107.6-2 8.3-.7 16.5-1.6 16.8-2 .7-.7-2.3-4.3-12.9-15.6-13.7-14.7-23.1-24.5-59.9-62.9-27.9-29.1-29.9-31.2-52-54-11.3-11.6-24.5-25.3-29.4-30.3-10-10.5-51.4-53-68.6-70.7-6.3-6.5-21.6-22.2-34-34.9-12.4-12.7-29.9-30.7-39-40-9.1-9.3-29.8-30.5-46-47.1s-36-36.8-44-45c-25-25.5-72.8-74.4-89-91-27.1-27.7-78-79.7-93-95-14.3-14.6-61.1-62.4-97.3-99.5-38.5-39.4-50.4-51.5-50.8-51.4-.2 0-7 6.8-15.1 15.2z"/></svg>